<svg xmlns="http://www.w3.org/2000/svg" viewBox="0 0 1600 1000" preserveAspectRatio="xMidYMid slice">
  <defs>
    <radialGradient id="bg02" cx="78%" cy="12%" r="120%">
      <stop offset="0%" stop-color="#1c3e5b"/>
      <stop offset="55%" stop-color="#10283b"/>
      <stop offset="100%" stop-color="#0A1A28"/>
    </radialGradient>
    <linearGradient id="copper02" x1="0" y1="0" x2="1" y2="1">
      <stop offset="0%" stop-color="#C8772E" stop-opacity="0.55"/>
      <stop offset="100%" stop-color="#C8772E" stop-opacity="0"/>
    </linearGradient>
  </defs>
  <rect width="1600" height="1000" fill="url(#bg02)"/>
  <rect width="1600" height="1000" fill="url(#copper02)"/>
  <!-- Map-style grid lines for "The Map Changed" -->
  <g stroke="#5B93C4" stroke-opacity="0.18" fill="none">
    <path d="M0 250 Q400 200 800 230 T1600 200" stroke-width="1"/>
    <path d="M0 360 Q400 320 800 340 T1600 310" stroke-width="1"/>
    <path d="M0 480 Q400 440 800 460 T1600 430" stroke-width="1.4"/>
    <path d="M0 600 Q400 560 800 580 T1600 560" stroke-width="1.4"/>
    <path d="M0 720 Q400 680 800 700 T1600 680" stroke-width="1.6"/>
  </g>
  <g stroke="#C8772E" stroke-opacity="0.35" fill="none" stroke-dasharray="4 6">
    <path d="M180 0 Q220 300 280 500 T420 1000"/>
    <path d="M1220 0 Q1180 280 1100 460 T960 1000"/>
  </g>
  <!-- Faded display title -->
  <text x="120" y="260" fill="#F5F2E9" fill-opacity="0.16" font-family="Georgia, serif" font-style="italic" font-size="220">The Map</text>
  <text x="120" y="500" fill="#F5F2E9" fill-opacity="0.10" font-family="Georgia, serif" font-style="italic" font-size="220">Changed.</text>
</svg>
